<mxfile host="app.diagrams.net" modified="2023-06-05T13:35:14.215Z" agent="Mozilla/5.0 (Windows NT 10.0; Win64; x64) AppleWebKit/537.36 (KHTML, like Gecko) Chrome/114.0.0.0 Safari/537.36" etag="-6g43UpXM6Z-KbrzLGWl" version="21.2.9" type="device">
  <diagram id="C5RBs43oDa-KdzZeNtuy" name="Page-1">
    <mxGraphModel dx="1300" dy="731" grid="1" gridSize="10" guides="1" tooltips="1" connect="1" arrows="1" fold="1" page="1" pageScale="1" pageWidth="827" pageHeight="1169" math="0" shadow="0">
      <root>
        <mxCell id="WIyWlLk6GJQsqaUBKTNV-0" />
        <mxCell id="WIyWlLk6GJQsqaUBKTNV-1" parent="WIyWlLk6GJQsqaUBKTNV-0" />
        <mxCell id="z_Tqfosw9igsKZFXv7nK-1" value="Geocacher" style="swimlane;fontStyle=0;childLayout=stackLayout;horizontal=1;startSize=30;horizontalStack=0;resizeParent=1;resizeParentMax=0;resizeLast=0;collapsible=1;marginBottom=0;whiteSpace=wrap;html=1;" parent="WIyWlLk6GJQsqaUBKTNV-1" vertex="1">
          <mxGeometry x="270" y="280" width="140" height="330" as="geometry" />
        </mxCell>
        <mxCell id="z_Tqfosw9igsKZFXv7nK-2" value="nome" style="text;strokeColor=none;fillColor=none;align=left;verticalAlign=middle;spacingLeft=4;spacingRight=4;overflow=hidden;points=[[0,0.5],[1,0.5]];portConstraint=eastwest;rotatable=0;whiteSpace=wrap;html=1;" parent="z_Tqfosw9igsKZFXv7nK-1" vertex="1">
          <mxGeometry y="30" width="140" height="30" as="geometry" />
        </mxCell>
        <mxCell id="z_Tqfosw9igsKZFXv7nK-3" value="cognome" style="text;strokeColor=none;fillColor=none;align=left;verticalAlign=middle;spacingLeft=4;spacingRight=4;overflow=hidden;points=[[0,0.5],[1,0.5]];portConstraint=eastwest;rotatable=0;whiteSpace=wrap;html=1;" parent="z_Tqfosw9igsKZFXv7nK-1" vertex="1">
          <mxGeometry y="60" width="140" height="30" as="geometry" />
        </mxCell>
        <mxCell id="z_Tqfosw9igsKZFXv7nK-24" value="username" style="text;strokeColor=none;fillColor=none;align=left;verticalAlign=middle;spacingLeft=4;spacingRight=4;overflow=hidden;points=[[0,0.5],[1,0.5]];portConstraint=eastwest;rotatable=0;whiteSpace=wrap;html=1;" parent="z_Tqfosw9igsKZFXv7nK-1" vertex="1">
          <mxGeometry y="90" width="140" height="30" as="geometry" />
        </mxCell>
        <mxCell id="z_Tqfosw9igsKZFXv7nK-5" value="password" style="text;strokeColor=none;fillColor=none;align=left;verticalAlign=middle;spacingLeft=4;spacingRight=4;overflow=hidden;points=[[0,0.5],[1,0.5]];portConstraint=eastwest;rotatable=0;whiteSpace=wrap;html=1;" parent="z_Tqfosw9igsKZFXv7nK-1" vertex="1">
          <mxGeometry y="120" width="140" height="30" as="geometry" />
        </mxCell>
        <mxCell id="z_Tqfosw9igsKZFXv7nK-4" value="mail" style="text;strokeColor=none;fillColor=none;align=left;verticalAlign=middle;spacingLeft=4;spacingRight=4;overflow=hidden;points=[[0,0.5],[1,0.5]];portConstraint=eastwest;rotatable=0;whiteSpace=wrap;html=1;" parent="z_Tqfosw9igsKZFXv7nK-1" vertex="1">
          <mxGeometry y="150" width="140" height="30" as="geometry" />
        </mxCell>
        <mxCell id="z_Tqfosw9igsKZFXv7nK-6" value="cellulare" style="text;strokeColor=none;fillColor=none;align=left;verticalAlign=middle;spacingLeft=4;spacingRight=4;overflow=hidden;points=[[0,0.5],[1,0.5]];portConstraint=eastwest;rotatable=0;whiteSpace=wrap;html=1;" parent="z_Tqfosw9igsKZFXv7nK-1" vertex="1">
          <mxGeometry y="180" width="140" height="30" as="geometry" />
        </mxCell>
        <mxCell id="z_Tqfosw9igsKZFXv7nK-30" value="dataNascita" style="text;strokeColor=none;fillColor=none;align=left;verticalAlign=middle;spacingLeft=4;spacingRight=4;overflow=hidden;points=[[0,0.5],[1,0.5]];portConstraint=eastwest;rotatable=0;whiteSpace=wrap;html=1;" parent="z_Tqfosw9igsKZFXv7nK-1" vertex="1">
          <mxGeometry y="210" width="140" height="30" as="geometry" />
        </mxCell>
        <mxCell id="z_Tqfosw9igsKZFXv7nK-25" value="livello" style="text;strokeColor=none;fillColor=none;align=left;verticalAlign=middle;spacingLeft=4;spacingRight=4;overflow=hidden;points=[[0,0.5],[1,0.5]];portConstraint=eastwest;rotatable=0;whiteSpace=wrap;html=1;" parent="z_Tqfosw9igsKZFXv7nK-1" vertex="1">
          <mxGeometry y="240" width="140" height="40" as="geometry" />
        </mxCell>
        <mxCell id="z_Tqfosw9igsKZFXv7nK-26" value="puntiEsperienza" style="text;strokeColor=none;fillColor=none;align=left;verticalAlign=middle;spacingLeft=4;spacingRight=4;overflow=hidden;points=[[0,0.5],[1,0.5]];portConstraint=eastwest;rotatable=0;whiteSpace=wrap;html=1;" parent="z_Tqfosw9igsKZFXv7nK-1" vertex="1">
          <mxGeometry y="280" width="140" height="50" as="geometry" />
        </mxCell>
        <mxCell id="pTBodsJrM3z8_gM9dssz-0" value="" style="endArrow=none;html=1;rounded=0;exitX=1;exitY=0.5;exitDx=0;exitDy=0;entryX=1;entryY=0.5;entryDx=0;entryDy=0;" parent="z_Tqfosw9igsKZFXv7nK-1" source="z_Tqfosw9igsKZFXv7nK-25" target="z_Tqfosw9igsKZFXv7nK-4" edge="1">
          <mxGeometry width="50" height="50" relative="1" as="geometry">
            <mxPoint x="201" y="410" as="sourcePoint" />
            <mxPoint x="231" y="200" as="targetPoint" />
            <Array as="points">
              <mxPoint x="251" y="250" />
              <mxPoint x="251" y="210" />
              <mxPoint x="251" y="170" />
            </Array>
          </mxGeometry>
        </mxCell>
        <mxCell id="z_Tqfosw9igsKZFXv7nK-7" value="Cache" style="swimlane;fontStyle=0;childLayout=stackLayout;horizontal=1;startSize=30;horizontalStack=0;resizeParent=1;resizeParentMax=0;resizeLast=0;collapsible=1;marginBottom=0;whiteSpace=wrap;html=1;" parent="WIyWlLk6GJQsqaUBKTNV-1" vertex="1">
          <mxGeometry x="329" y="740" width="140" height="270" as="geometry">
            <mxRectangle x="490" y="80" width="80" height="30" as="alternateBounds" />
          </mxGeometry>
        </mxCell>
        <mxCell id="z_Tqfosw9igsKZFXv7nK-32" value="nome" style="text;strokeColor=none;fillColor=none;align=left;verticalAlign=middle;spacingLeft=4;spacingRight=4;overflow=hidden;points=[[0,0.5],[1,0.5]];portConstraint=eastwest;rotatable=0;whiteSpace=wrap;html=1;" parent="z_Tqfosw9igsKZFXv7nK-7" vertex="1">
          <mxGeometry y="30" width="140" height="30" as="geometry" />
        </mxCell>
        <mxCell id="z_Tqfosw9igsKZFXv7nK-11" value="descrizione" style="text;strokeColor=none;fillColor=none;align=left;verticalAlign=middle;spacingLeft=4;spacingRight=4;overflow=hidden;points=[[0,0.5],[1,0.5]];portConstraint=eastwest;rotatable=0;whiteSpace=wrap;html=1;" parent="z_Tqfosw9igsKZFXv7nK-7" vertex="1">
          <mxGeometry y="60" width="140" height="30" as="geometry" />
        </mxCell>
        <mxCell id="z_Tqfosw9igsKZFXv7nK-8" value="latitudine&amp;nbsp;" style="text;strokeColor=none;fillColor=none;align=left;verticalAlign=middle;spacingLeft=4;spacingRight=4;overflow=hidden;points=[[0,0.5],[1,0.5]];portConstraint=eastwest;rotatable=0;whiteSpace=wrap;html=1;" parent="z_Tqfosw9igsKZFXv7nK-7" vertex="1">
          <mxGeometry y="90" width="140" height="30" as="geometry" />
        </mxCell>
        <mxCell id="z_Tqfosw9igsKZFXv7nK-9" value="longitudine" style="text;strokeColor=none;fillColor=none;align=left;verticalAlign=middle;spacingLeft=4;spacingRight=4;overflow=hidden;points=[[0,0.5],[1,0.5]];portConstraint=eastwest;rotatable=0;whiteSpace=wrap;html=1;" parent="z_Tqfosw9igsKZFXv7nK-7" vertex="1">
          <mxGeometry y="120" width="140" height="30" as="geometry" />
        </mxCell>
        <mxCell id="z_Tqfosw9igsKZFXv7nK-10" value="difficolta" style="text;strokeColor=none;fillColor=none;align=left;verticalAlign=middle;spacingLeft=4;spacingRight=4;overflow=hidden;points=[[0,0.5],[1,0.5]];portConstraint=eastwest;rotatable=0;whiteSpace=wrap;html=1;" parent="z_Tqfosw9igsKZFXv7nK-7" vertex="1">
          <mxGeometry y="150" width="140" height="30" as="geometry" />
        </mxCell>
        <mxCell id="z_Tqfosw9igsKZFXv7nK-33" value="parolaOrdine" style="text;strokeColor=none;fillColor=none;align=left;verticalAlign=middle;spacingLeft=4;spacingRight=4;overflow=hidden;points=[[0,0.5],[1,0.5]];portConstraint=eastwest;rotatable=0;whiteSpace=wrap;html=1;" parent="z_Tqfosw9igsKZFXv7nK-7" vertex="1">
          <mxGeometry y="180" width="140" height="30" as="geometry" />
        </mxCell>
        <mxCell id="z_Tqfosw9igsKZFXv7nK-34" value="statoApprovazione" style="text;strokeColor=none;fillColor=none;align=left;verticalAlign=middle;spacingLeft=4;spacingRight=4;overflow=hidden;points=[[0,0.5],[1,0.5]];portConstraint=eastwest;rotatable=0;whiteSpace=wrap;html=1;" parent="z_Tqfosw9igsKZFXv7nK-7" vertex="1">
          <mxGeometry y="210" width="140" height="30" as="geometry" />
        </mxCell>
        <mxCell id="z_Tqfosw9igsKZFXv7nK-12" value="allegato" style="text;strokeColor=none;fillColor=none;align=left;verticalAlign=middle;spacingLeft=4;spacingRight=4;overflow=hidden;points=[[0,0.5],[1,0.5]];portConstraint=eastwest;rotatable=0;whiteSpace=wrap;html=1;" parent="z_Tqfosw9igsKZFXv7nK-7" vertex="1">
          <mxGeometry y="240" width="140" height="30" as="geometry" />
        </mxCell>
        <mxCell id="YlF-QUDlPPbr6kB3OmpM-0" value="" style="endArrow=none;html=1;rounded=0;entryX=0.846;entryY=-0.002;entryDx=0;entryDy=0;entryPerimeter=0;exitX=0.545;exitY=1.019;exitDx=0;exitDy=0;exitPerimeter=0;" parent="WIyWlLk6GJQsqaUBKTNV-1" target="z_Tqfosw9igsKZFXv7nK-7" edge="1" source="z_Tqfosw9igsKZFXv7nK-26">
          <mxGeometry width="50" height="50" relative="1" as="geometry">
            <mxPoint x="449" y="560" as="sourcePoint" />
            <mxPoint x="549" y="690" as="targetPoint" />
            <Array as="points" />
          </mxGeometry>
        </mxCell>
        <mxCell id="YlF-QUDlPPbr6kB3OmpM-1" value="&lt;font style=&quot;font-size: 13px;&quot;&gt;trova&lt;/font&gt;" style="edgeLabel;html=1;align=center;verticalAlign=middle;resizable=0;points=[];" parent="YlF-QUDlPPbr6kB3OmpM-0" vertex="1" connectable="0">
          <mxGeometry x="0.0859" y="-1" relative="1" as="geometry">
            <mxPoint y="-7" as="offset" />
          </mxGeometry>
        </mxCell>
        <mxCell id="YlF-QUDlPPbr6kB3OmpM-2" value="&lt;font style=&quot;font-size: 13px;&quot;&gt;(0,n)&lt;/font&gt;" style="edgeLabel;html=1;align=center;verticalAlign=middle;resizable=0;points=[];" parent="YlF-QUDlPPbr6kB3OmpM-0" vertex="1" connectable="0">
          <mxGeometry x="-0.8687" y="-1" relative="1" as="geometry">
            <mxPoint x="1" y="3" as="offset" />
          </mxGeometry>
        </mxCell>
        <mxCell id="YlF-QUDlPPbr6kB3OmpM-3" value="&lt;font style=&quot;font-size: 13px;&quot;&gt;(0,n)&lt;/font&gt;" style="edgeLabel;html=1;align=center;verticalAlign=middle;resizable=0;points=[];" parent="YlF-QUDlPPbr6kB3OmpM-0" vertex="1" connectable="0">
          <mxGeometry x="0.8404" relative="1" as="geometry">
            <mxPoint x="1" as="offset" />
          </mxGeometry>
        </mxCell>
        <mxCell id="krlIA6b-CnLqpwQ1CTmK-11" value="" style="endArrow=none;html=1;rounded=0;entryX=0;entryY=0.5;entryDx=0;entryDy=0;" parent="WIyWlLk6GJQsqaUBKTNV-1" target="z_Tqfosw9igsKZFXv7nK-10" edge="1">
          <mxGeometry width="50" height="50" relative="1" as="geometry">
            <mxPoint x="119" y="560" as="sourcePoint" />
            <mxPoint x="569" y="430" as="targetPoint" />
            <Array as="points">
              <mxPoint x="119" y="905" />
            </Array>
          </mxGeometry>
        </mxCell>
        <mxCell id="krlIA6b-CnLqpwQ1CTmK-13" value="&lt;font style=&quot;font-size: 13px;&quot;&gt;approva&lt;/font&gt;" style="edgeLabel;html=1;align=center;verticalAlign=middle;resizable=0;points=[];" parent="krlIA6b-CnLqpwQ1CTmK-11" vertex="1" connectable="0">
          <mxGeometry x="-0.0948" y="1" relative="1" as="geometry">
            <mxPoint y="-1" as="offset" />
          </mxGeometry>
        </mxCell>
        <mxCell id="krlIA6b-CnLqpwQ1CTmK-14" value="&lt;font style=&quot;font-size: 13px;&quot;&gt;(1,1)&lt;/font&gt;" style="edgeLabel;html=1;align=center;verticalAlign=middle;resizable=0;points=[];" parent="krlIA6b-CnLqpwQ1CTmK-11" vertex="1" connectable="0">
          <mxGeometry x="0.7979" y="-1" relative="1" as="geometry">
            <mxPoint as="offset" />
          </mxGeometry>
        </mxCell>
        <mxCell id="krlIA6b-CnLqpwQ1CTmK-15" value="&lt;font style=&quot;font-size: 13px;&quot;&gt;(0,n)&lt;/font&gt;" style="edgeLabel;html=1;align=center;verticalAlign=middle;resizable=0;points=[];" parent="krlIA6b-CnLqpwQ1CTmK-11" vertex="1" connectable="0">
          <mxGeometry x="-0.8237" y="-1" relative="1" as="geometry">
            <mxPoint y="-19" as="offset" />
          </mxGeometry>
        </mxCell>
        <mxCell id="6G6HLSWwVINfKU5ZikSL-5" value="Feedback" style="swimlane;fontStyle=0;childLayout=stackLayout;horizontal=1;startSize=30;horizontalStack=0;resizeParent=1;resizeParentMax=0;resizeLast=0;collapsible=1;marginBottom=0;whiteSpace=wrap;html=1;" parent="WIyWlLk6GJQsqaUBKTNV-1" vertex="1">
          <mxGeometry x="480" y="640" width="140" height="60" as="geometry" />
        </mxCell>
        <mxCell id="6G6HLSWwVINfKU5ZikSL-7" value="testo" style="text;strokeColor=none;fillColor=none;align=left;verticalAlign=middle;spacingLeft=4;spacingRight=4;overflow=hidden;points=[[0,0.5],[1,0.5]];portConstraint=eastwest;rotatable=0;whiteSpace=wrap;html=1;" parent="6G6HLSWwVINfKU5ZikSL-5" vertex="1">
          <mxGeometry y="30" width="140" height="30" as="geometry" />
        </mxCell>
        <mxCell id="pTBodsJrM3z8_gM9dssz-1" value="(0,n) amici" style="text;html=1;strokeColor=none;fillColor=none;align=center;verticalAlign=middle;whiteSpace=wrap;rounded=0;" parent="WIyWlLk6GJQsqaUBKTNV-1" vertex="1">
          <mxGeometry x="460" y="475" width="60" height="30" as="geometry" />
        </mxCell>
        <mxCell id="pTBodsJrM3z8_gM9dssz-7" value="" style="endArrow=none;dashed=1;html=1;rounded=0;entryX=-0.013;entryY=-0.031;entryDx=0;entryDy=0;entryPerimeter=0;" parent="WIyWlLk6GJQsqaUBKTNV-1" target="6G6HLSWwVINfKU5ZikSL-7" edge="1">
          <mxGeometry width="50" height="50" relative="1" as="geometry">
            <mxPoint x="380" y="650" as="sourcePoint" />
            <mxPoint x="560.0000000000002" y="660" as="targetPoint" />
          </mxGeometry>
        </mxCell>
        <mxCell id="HSowE53KddjygHcloSRy-0" value="" style="endArrow=none;dashed=1;html=1;rounded=0;entryX=-0.009;entryY=0.015;entryDx=0;entryDy=0;entryPerimeter=0;" edge="1" parent="WIyWlLk6GJQsqaUBKTNV-1" target="HSowE53KddjygHcloSRy-5">
          <mxGeometry width="50" height="50" relative="1" as="geometry">
            <mxPoint x="520" y="490" as="sourcePoint" />
            <mxPoint x="500.0000000000002" y="220" as="targetPoint" />
          </mxGeometry>
        </mxCell>
        <mxCell id="HSowE53KddjygHcloSRy-4" value="RichiestaAmicizia" style="swimlane;fontStyle=0;childLayout=stackLayout;horizontal=1;startSize=30;horizontalStack=0;resizeParent=1;resizeParentMax=0;resizeLast=0;collapsible=1;marginBottom=0;whiteSpace=wrap;html=1;" vertex="1" parent="WIyWlLk6GJQsqaUBKTNV-1">
          <mxGeometry x="560" y="460" width="140" height="60" as="geometry" />
        </mxCell>
        <mxCell id="HSowE53KddjygHcloSRy-5" value="conferma" style="text;strokeColor=none;fillColor=none;align=left;verticalAlign=middle;spacingLeft=4;spacingRight=4;overflow=hidden;points=[[0,0.5],[1,0.5]];portConstraint=eastwest;rotatable=0;whiteSpace=wrap;html=1;" vertex="1" parent="HSowE53KddjygHcloSRy-4">
          <mxGeometry y="30" width="140" height="30" as="geometry" />
        </mxCell>
        <mxCell id="HSowE53KddjygHcloSRy-6" value="Admin" style="swimlane;fontStyle=0;childLayout=stackLayout;horizontal=1;startSize=30;horizontalStack=0;resizeParent=1;resizeParentMax=0;resizeLast=0;collapsible=1;marginBottom=0;whiteSpace=wrap;html=1;" vertex="1" parent="WIyWlLk6GJQsqaUBKTNV-1">
          <mxGeometry x="50" y="460" width="140" height="90" as="geometry">
            <mxRectangle x="490" y="80" width="80" height="30" as="alternateBounds" />
          </mxGeometry>
        </mxCell>
        <mxCell id="HSowE53KddjygHcloSRy-7" value="username" style="text;strokeColor=none;fillColor=none;align=left;verticalAlign=middle;spacingLeft=4;spacingRight=4;overflow=hidden;points=[[0,0.5],[1,0.5]];portConstraint=eastwest;rotatable=0;whiteSpace=wrap;html=1;" vertex="1" parent="HSowE53KddjygHcloSRy-6">
          <mxGeometry y="30" width="140" height="30" as="geometry" />
        </mxCell>
        <mxCell id="HSowE53KddjygHcloSRy-8" value="password" style="text;strokeColor=none;fillColor=none;align=left;verticalAlign=middle;spacingLeft=4;spacingRight=4;overflow=hidden;points=[[0,0.5],[1,0.5]];portConstraint=eastwest;rotatable=0;whiteSpace=wrap;html=1;" vertex="1" parent="HSowE53KddjygHcloSRy-6">
          <mxGeometry y="60" width="140" height="30" as="geometry" />
        </mxCell>
      </root>
    </mxGraphModel>
  </diagram>
</mxfile>
